<svg width="12" height="12" viewBox="0 0 12 12" fill="none" xmlns="http://www.w3.org/2000/svg">
<path d="M1 5.395C1 3.93 1.675 3.135 3.02 3.02C3.14 3.005 3.265 3 3.395 3H6.595C8.19 3 8.99001 3.8 8.99001 5.395V7.395C8.99001 7.525 8.985 7.65 8.97 7.77C8.855 9.12 8.06 9.78999 6.595 9.78999H6.395C6.27 9.78999 6.15 9.85 6.075 9.95L5.47501 10.75C5.21001 11.105 4.78 11.105 4.515 10.75L3.91499 9.95C3.84999 9.865 3.705 9.78999 3.595 9.78999H3.395C1.8 9.78999 1 9.395 1 7.395" stroke="#8E8E8E" stroke-width="1.5" stroke-miterlimit="10" stroke-linecap="round" stroke-linejoin="round"/>
<path d="M10.99 3.395C10.99 1.8 10.19 1 8.59502 1H5.39502C3.93002 1 3.13502 1.675 3.02002 3.02C3.14002 3.005 3.26502 3 3.39502 3H6.59502C8.19002 3 8.99002 3.8 8.99002 5.395V7.395C8.99002 7.525 8.98502 7.65 8.97002 7.77C10.315 7.655 10.99 6.865 10.99 5.395" stroke="#8E8E8E" stroke-width="1.5" stroke-miterlimit="10" stroke-linecap="round" stroke-linejoin="round"/>
<path d="M6.74775 6.625H6.75225" stroke="#8E8E8E" stroke-width="2" stroke-linecap="round" stroke-linejoin="round"/>
<path d="M4.99775 6.625H5.00225" stroke="#8E8E8E" stroke-width="2" stroke-linecap="round" stroke-linejoin="round"/>
<path d="M3.24775 6.625H3.25225" stroke="#8E8E8E" stroke-width="2" stroke-linecap="round" stroke-linejoin="round"/>
</svg>
