<svg width="248" height="32" viewBox="0 0 248 32" fill="none" xmlns="http://www.w3.org/2000/svg">
<path d="M0 31.5V0H9V4.5H13.5V9H18V4.5H22.5V0H31.5V31.5H22.5V13.5H18V22.5H13.5V13.5H9V31.5H0ZM36 31.5V9H40.5V4.5H45V0H58.5V4.5H63V9H67.5V31.5H58.5V22.5H45V31.5H36ZM45 18H58.5V9H54V4.5H49.5V9H45V18ZM72 31.5V0H103.5V4.5H81V13.5H99V18H81V27H103.5V31.5H72ZM108 31.5V0H117V4.5H121.5V9H126V13.5H130.5V0H139.5V31.5H130.5V22.5H126V18H121.5V13.5H117V31.5H108Z" fill="url(#paint0_linear_422_1368)"/>
<path d="M144 31.5V0H171V4.5H175.5V13.5H171V18H175.5V27H171V31.5H144ZM153 13.5H166.5V4.5H153V13.5ZM153 27H166.5V18H153V27ZM180 31.5V9H184.5V4.5H189V0H202.5V4.5H207V9H211.5V31.5H202.5V22.5H189V31.5H180ZM189 18H202.5V9H198V4.5H193.5V9H189V18ZM220.5 31.5V0H229.5V27H247.5V31.5H220.5Z" fill="white"/>
<defs>
<linearGradient id="paint0_linear_422_1368" x1="0" y1="18" x2="252" y2="18" gradientUnits="userSpaceOnUse">
<stop stop-color="#54B9FC"/>
<stop offset="1" stop-color="#D4EDFD"/>
</linearGradient>
</defs>
</svg>
