<svg width="12" height="12" viewBox="0 0 12 12" fill="none" xmlns="http://www.w3.org/2000/svg">
<path d="M4.51496 6.99996C4.31996 6.71496 4.20996 6.36996 4.20996 5.99996C4.20996 5.00996 5.00996 4.20996 5.99996 4.20996C6.98996 4.20996 7.78996 5.00996 7.78996 5.99996C7.78996 6.98996 6.98996 7.78996 5.99996 7.78996" stroke="#8E8E8E" stroke-width="1.5" stroke-linecap="round" stroke-linejoin="round"/>
<path d="M8.78004 2.78999C7.93504 2.18999 6.98504 1.86499 6.00004 1.86499C4.23504 1.86499 2.59004 2.90499 1.44504 4.70499C0.995044 5.40999 0.995044 6.59499 1.44504 7.29999C2.59004 9.09999 4.23504 10.14 6.00004 10.14C7.76504 10.14 9.41004 9.09999 10.555 7.29999C11.005 6.59499 11.005 5.40999 10.555 4.70499" stroke="#8E8E8E" stroke-width="1.5" stroke-linecap="round" stroke-linejoin="round"/>
</svg>
